HIERARCHY
ROOT Hips
{
	OFFSET 0.000000 0.000000 0.000000
	CHANNELS 6 Xposition Yposition Zposition Zrotation Yrotation Xrotation 
	JOINT LHipJoint
	{
		OFFSET 0.000000 0.000000 0.000000
		CHANNELS 3 Zrotation Yrotation Xrotation
		JOINT LeftUpLeg
		{
			OFFSET 1.363060 -1.794630 0.839290
			CHANNELS 3 Zrotation Yrotation Xrotation
			JOINT LeftLeg
			{
				OFFSET 2.448110 -6.726130 0.000000
				CHANNELS 3 Zrotation Yrotation Xrotation
				JOINT LeftFoot
				{
					OFFSET 2.562200 -7.039590 0.000000
					CHANNELS 3 Zrotation Yrotation Xrotation
					JOINT LeftToeBase
					{
						OFFSET 0.157640 -0.433110 2.322550
						CHANNELS 3 Zrotation Yrotation Xrotation
						End Site
						{
							OFFSET 0.000000 0.000000 0.000000
						}
					}
				}
			}
		}
	}
	JOINT RHipJoint
	{
		OFFSET 0.000000 0.000000 0.000000
		CHANNELS 3 Zrotation Yrotation Xrotation
		JOINT RightUpLeg
		{
			OFFSET -1.305520 -1.794630 0.839290
			CHANNELS 3 Zrotation Yrotation Xrotation
			JOINT RightLeg
			{
				OFFSET -2.542530 -6.985550 0.000000
				CHANNELS 3 Zrotation Yrotation Xrotation
				JOINT RightFoot
				{
					OFFSET -2.568260 -7.056230 0.000000
					CHANNELS 3 Zrotation Yrotation Xrotation
					JOINT RightToeBase
					{
						OFFSET -0.164730 -0.452590 2.363150
						CHANNELS 3 Zrotation Yrotation Xrotation
						End Site
						{
							OFFSET 0.000000 0.000000 0.000000
						}
					}
				}
			}
		}
	}
	JOINT LowerBack
	{
		OFFSET 0.000000 0.000000 0.000000
		CHANNELS 3 Zrotation Yrotation Xrotation
		JOINT Spine
		{
			OFFSET 0.028270 2.035590 -0.193380
			CHANNELS 3 Zrotation Yrotation Xrotation
			JOINT Spine1
			{
				OFFSET 0.056720 2.048850 -0.042750
				CHANNELS 3 Zrotation Yrotation Xrotation
				JOINT Neck
				{
					OFFSET 0.000000 0.000000 0.000000
					CHANNELS 3 Zrotation Yrotation Xrotation
					JOINT Neck1
					{
						OFFSET -0.054170 1.746240 0.172020
						CHANNELS 3 Zrotation Yrotation Xrotation
						JOINT Head
						{
							OFFSET 0.104070 1.761360 -0.123970
							CHANNELS 3 Zrotation Yrotation Xrotation
							End Site
							{
								OFFSET 0.000000 0.000000 0.000000
							}
						}
					}
				}
				JOINT LeftShoulder
				{
					OFFSET 0.000000 0.000000 0.000000
					CHANNELS 3 Zrotation Yrotation Xrotation
					JOINT LeftArm
					{
						OFFSET 3.362410 1.200890 -0.311210
						CHANNELS 3 Zrotation Yrotation Xrotation
						JOINT LeftForeArm
						{
							OFFSET 4.983000 -0.000000 -0.000000
							CHANNELS 3 Zrotation Yrotation Xrotation
							JOINT LeftHand
							{
								OFFSET 3.483560 -0.000000 -0.000000
								CHANNELS 3 Zrotation Yrotation Xrotation
								JOINT LeftFingerBase
								{
									OFFSET 0.000000 0.000000 0.000000
									CHANNELS 3 Zrotation Yrotation Xrotation
									JOINT LeftHandIndex1
									{
										OFFSET 0.715260 -0.000000 -0.000000
										CHANNELS 3 Zrotation Yrotation Xrotation
										End Site
										{
											OFFSET 0.000000 0.000000 0.000000
										}
									}
								}
								JOINT LThumb
								{
									OFFSET 0.000000 0.000000 0.000000
									CHANNELS 3 Zrotation Yrotation Xrotation
									End Site
									{
										OFFSET 0.000000 0.000000 0.000000
									}
								}
							}
						}
					}
				}
				JOINT RightShoulder
				{
					OFFSET 0.000000 0.000000 0.000000
					CHANNELS 3 Zrotation Yrotation Xrotation
					JOINT RightArm
					{
						OFFSET -3.136600 1.374050 -0.404650
						CHANNELS 3 Zrotation Yrotation Xrotation
						JOINT RightForeArm
						{
							OFFSET -5.241900 -0.000000 -0.000000
							CHANNELS 3 Zrotation Yrotation Xrotation
							JOINT RightHand
							{
								OFFSET -3.444170 -0.000000 -0.000000
								CHANNELS 3 Zrotation Yrotation Xrotation
								JOINT RightFingerBase
								{
									OFFSET 0.000000 0.000000 0.000000
									CHANNELS 3 Zrotation Yrotation Xrotation
									JOINT RightHandIndex1
									{
										OFFSET -0.622530 -0.000000 -0.000000
										CHANNELS 3 Zrotation Yrotation Xrotation
										End Site
										{
											OFFSET 0.000000 0.000000 0.000000
										}
									}
								}
								JOINT RThumb
								{
									OFFSET 0.000000 0.000000 0.000000
									CHANNELS 3 Zrotation Yrotation Xrotation
									End Site
									{
										OFFSET 0.000000 0.000000 0.000000
									}
								}
							}
						}
					}
				}
			}
		}
	}
}
MOTION
Frames: 7
Frame Time: 0.008333
1.141722 16.834109 -0.560844 -136.964403 89.539969 -125.243696 -11.425894 4.130414 0.763473 -4.747134 2.089027 5.741950 -1.335032 1.113066 18.727291 0.067716 -1.703105 2.533296 -0.170400 -0.000000 -77.228300 7.856698 -0.971437 3.770027 10.539392 5.640361 -33.363239 2.998321 0.444788 6.051571 -0.299704 -3.420881 8.345799 -1.904100 -0.000001 -28.716000 4.053382 -3.730255 -4.509765 0.051245 -4.261679 -3.681555 -7.454983 -4.307072 0.738385 9.721780 -9.139164 -6.616259 -4.446514 -0.350968 0.292378 0.000000 0.000000 0.000000 -7.175760 1.338964 1.590722 -61.836556 -18.554518 17.497658 -3.017909 -36.528831 -0.012132 4.861264 0.806041 0.029565 -0.114508 0.151587 0.000000 0.000000 0.000000 0.000000 0.000000 0.000000 0.000000 19.744568 -9.007998 0.985131 64.827579 -9.018335 -15.185928 4.304867 9.302583 0.008299 -0.831983 4.001913 -0.033341 0.120412 -0.029157 -0.000000 0.000000 0.000000 0.000000 0.000000 0.000000 0.000000 
1.313296 16.862756 -0.540361 -124.619998 89.235403 -112.860344 -11.622824 4.149424 0.789945 -4.106065 2.101035 4.787578 -1.089680 1.287946 20.955114 0.115370 -1.716527 4.338326 -0.249800 0.000000 -78.653499 7.659920 -1.123496 3.821131 11.033789 6.012438 -33.082462 3.014280 0.372523 6.798620 -0.348153 -3.616048 7.937931 -1.936701 0.000000 -27.420100 4.459118 -3.685871 -4.628634 0.140267 -4.259664 -3.715440 -7.425795 -4.308809 0.741742 9.649908 -8.975013 -6.597276 -4.455086 -0.352248 0.299099 0.000000 0.000000 0.000000 -7.300407 1.489462 1.564206 -62.547277 -17.805338 17.380587 -3.023480 -35.332612 -0.011852 4.908377 0.856154 0.032301 -0.110499 0.144896 0.000000 0.000000 0.000000 0.000000 0.000000 0.000000 0.000000 19.667155 -8.835201 0.956921 64.925864 -8.595575 -15.020688 4.309631 9.222908 0.008319 -0.893661 4.020085 -0.035636 0.120536 -0.029491 -0.000000 0.000000 0.000000 0.000000 0.000000 0.000000 0.000000 
1.480800 16.892215 -0.517927 -116.141059 88.938960 -104.347447 -11.794489 4.150872 0.799762 -3.505402 2.179724 3.706868 -0.837343 1.454987 23.351582 0.182884 -1.733825 6.286699 -0.351000 0.000001 -79.298899 7.503140 -1.254738 3.869116 11.523225 6.384804 -32.731628 3.035917 0.314706 7.461823 -0.401550 -3.795848 7.376532 -1.948799 -0.000000 -25.929200 4.835402 -3.631198 -4.719460 0.223398 -4.245082 -3.742856 -7.400888 -4.298554 0.740405 9.596032 -8.777983 -6.569582 -4.463211 -0.353517 0.307645 0.000000 0.000000 0.000000 -7.353823 1.642750 1.543996 -63.263739 -17.043801 17.204165 -3.024974 -34.107745 -0.011582 4.942389 0.937511 0.036236 -0.106193 0.138247 0.000000 0.000000 0.000000 0.000000 0.000000 0.000000 0.000000 19.598989 -8.623014 0.931071 65.070364 -8.111991 -14.827191 4.309279 9.151294 0.008312 -0.952843 4.032236 -0.037930 0.120454 -0.029945 -0.000000 0.000000 0.000000 0.000000 0.000000 0.000000 0.000000 
1.644017 16.921990 -0.493122 -110.104933 88.667817 -98.280031 -11.941759 4.134342 0.797013 -2.979001 2.295032 2.513060 -0.584792 1.609154 25.887109 0.275306 -1.699107 8.317834 -0.459900 -0.000000 -79.020500 7.380216 -1.364465 3.910393 11.981063 6.732420 -32.311565 3.059599 0.273207 8.019818 -0.455576 -3.946227 6.699947 -1.937800 -0.000000 -24.299899 5.152762 -3.575454 -4.784957 0.291992 -4.223461 -3.764343 -7.380691 -4.281013 0.736849 9.564531 -8.561414 -6.536866 -4.471575 -0.354797 0.317158 0.000000 0.000000 0.000000 -7.336743 1.789168 1.530006 -63.968364 -16.271004 16.980218 -3.023488 -32.877873 -0.011301 4.953764 1.050351 0.041570 -0.101728 0.131680 0.000000 0.000000 0.000000 0.000000 0.000000 0.000000 0.000000 19.551957 -8.386602 0.908347 65.257765 -7.562830 -14.576547 4.303033 9.096784 0.008263 -1.008372 4.032823 -0.039824 0.120124 -0.030461 -0.000000 0.000000 0.000000 0.000000 0.000000 0.000000 0.000000 
1.802970 16.951682 -0.466314 -105.683157 88.420118 -93.830067 -12.068589 4.096173 0.782850 -2.525663 2.433440 1.219193 -0.338035 1.746737 28.538121 0.393139 -1.567568 10.344407 -0.554900 0.000000 -77.731400 7.283510 -1.455319 3.943875 12.407409 7.044382 -31.813397 3.086341 0.250625 8.440479 -0.507844 -4.068220 5.957941 -1.908200 -0.000000 -22.588599 5.413361 -3.523076 -4.825695 0.346422 -4.198938 -3.780158 -7.365210 -4.260195 0.731971 9.552928 -8.335075 -6.501326 -4.480256 -0.356074 0.327147 0.000000 0.000000 0.000000 -7.264622 1.921194 1.523329 -64.644995 -15.489552 16.725895 -3.020161 -31.667571 -0.010993 4.932379 1.196149 0.047906 -0.097224 0.125271 0.000000 0.000000 0.000000 0.000000 0.000000 0.000000 0.000000 19.525878 -8.137082 0.889481 65.482835 -6.946626 -14.256075 4.291191 9.066127 0.008172 -1.056057 4.019958 -0.041418 0.119535 -0.031030 -0.000000 0.000000 0.000000 0.000000 0.000000 0.000000 0.000000 
1.957788 16.980894 -0.438208 -102.529356 88.186315 -90.651991 -12.181824 4.032842 0.758065 -2.128132 2.588374 -0.165586 -0.103174 1.866510 31.284431 0.533337 -1.295944 12.262450 -0.606600 0.000000 -75.426900 7.203135 -1.531986 3.970421 12.815012 7.316829 -31.230738 3.118774 0.249354 8.694348 -0.557040 -4.170012 5.201637 -1.867700 0.000000 -20.853800 5.633770 -3.475767 -4.844176 0.390151 -4.174461 -3.791512 -7.354568 -4.239054 0.724446 9.554862 -8.094597 -6.461744 -4.489517 -0.357371 0.338010 0.000000 0.000000 0.000000 -7.160558 2.038287 1.526165 -65.276788 -14.706343 16.468963 -3.016364 -30.498021 -0.010653 4.869791 1.375904 0.055345 -0.092826 0.119117 0.000000 0.000000 0.000000 0.000000 0.000000 0.000000 0.000000 19.514360 -7.869925 0.874549 65.742992 -6.277859 -13.896175 4.275184 9.066641 0.008051 -1.082627 3.996875 -0.042011 0.118659 -0.031712 -0.000000 0.000000 0.000000 0.000000 0.000000 0.000000 0.000000 
2.108696 17.009357 -0.409103 -100.539315 87.971274 -88.642435 -12.282013 3.944872 0.725661 -1.791924 2.741458 -1.626359 0.113579 1.970228 34.098129 0.691361 -0.825998 13.971504 -0.576800 -0.000000 -72.202500 7.136798 -1.596588 3.987685 13.203319 7.529145 -30.573873 3.157149 0.268214 8.781219 -0.599648 -4.242013 4.468342 -1.817700 0.000000 -19.173200 5.814169 -3.435105 -4.842656 0.423255 -4.151562 -3.798979 -7.349032 -4.219099 0.713968 9.568405 -7.843952 -6.418737 -4.499913 -0.358725 0.349617 0.000000 0.000000 0.000000 -7.038492 2.138211 1.538907 -65.851157 -13.925117 16.234763 -3.013280 -29.387817 -0.010276 4.760184 1.587253 0.063190 -0.088647 0.113257 0.000000 0.000000 0.000000 0.000000 0.000000 0.000000 0.000000 19.519062 -7.589313 0.863133 66.032335 -5.565886 -13.505032 4.255606 9.106780 0.007909 -1.079912 3.967255 -0.041603 0.117467 -0.032531 -0.000000 0.000000 0.000000 0.000000 0.000000 0.000000 0.000000 
